<svg width="320" height="100" viewBox="0 0 320 100" fill="none" xmlns="http://www.w3.org/2000/svg">
<path fill-rule="evenodd" clip-rule="evenodd" d="M54.2601 16.1674C52.3418 15.0599 49.9784 15.0599 48.0601 16.1674L23.2716 30.4791C21.3533 31.5866 20.1716 33.6334 20.1716 35.8484V64.4717C20.1716 66.6867 21.3533 68.7335 23.2716 69.841L48.0601 84.1527C49.9784 85.2602 52.3418 85.2602 54.2601 84.1527L79.0486 69.841C80.9669 68.7335 82.1486 66.6867 82.1486 64.4717V35.8484C82.1486 33.6334 80.9669 31.5866 79.0486 30.4791L54.2601 16.1674ZM43.8784 25.51L26.2716 35.6752C26.2097 35.7109 26.1716 35.777 26.1716 35.8484V55.2276L43.8784 25.51ZM27.2189 65.1918L51.0601 78.9565C51.122 78.9923 51.1982 78.9923 51.2601 78.9565L68.8006 68.8295H40.0919C32.4595 68.8295 29.7284 58.7412 36.3186 54.891L60.9493 40.501L51.5462 24.9374C51.5156 24.8866 51.4914 24.8715 51.4771 24.8637C51.4553 24.852 51.4199 24.8406 51.3744 24.8408C51.329 24.8409 51.2937 24.8525 51.272 24.8644C51.2577 24.8722 51.2336 24.8875 51.2032 24.9384L27.2189 65.1918ZM76.1486 54.0557V38.5701L69.2335 42.61L76.1486 54.0557ZM72.6087 33.6892L59.1488 25.9181L66.1305 37.474L72.6087 33.6892ZM39.3453 60.0716L64.0523 45.6371L74.2561 62.5261C74.2889 62.5804 74.2899 62.609 74.2899 62.6238C74.2898 62.6482 74.2827 62.686 74.2591 62.7278C74.2355 62.7696 74.2068 62.7952 74.186 62.8079C74.1734 62.8156 74.1483 62.8295 74.0849 62.8295H40.0919C38.5817 62.8295 38.0414 60.8334 39.3453 60.0716Z" fill="url(#paint0_linear_4_142)"/>
<path d="M136.438 29.3438V37.9688C132.229 34.4479 127.875 32.6875 123.375 32.6875C118.417 32.6875 114.24 34.4688 110.844 38.0312C107.427 41.5729 105.719 45.9062 105.719 51.0312C105.719 56.0938 107.427 60.3646 110.844 63.8438C114.26 67.3229 118.448 69.0625 123.406 69.0625C125.969 69.0625 128.146 68.6458 129.938 67.8125C130.938 67.3958 131.969 66.8333 133.031 66.125C134.115 65.4167 135.25 64.5625 136.438 63.5625V72.3438C132.271 74.6979 127.896 75.875 123.312 75.875C116.417 75.875 110.531 73.4688 105.656 68.6562C100.802 63.8021 98.375 57.9479 98.375 51.0938C98.375 44.9479 100.406 39.4688 104.469 34.6562C109.469 28.7604 115.938 25.8125 123.875 25.8125C128.208 25.8125 132.396 26.9896 136.438 29.3438ZM153.906 69.3438L140.219 44.5625H148.375L157.688 62.0625L166.375 44.5625H174.312L150.062 91.5625H142.031L153.906 69.3438ZM205.281 49.875H225.219V51.4688C225.219 55.0938 224.792 58.3021 223.938 61.0938C223.104 63.6771 221.698 66.0938 219.719 68.3438C215.24 73.3854 209.542 75.9062 202.625 75.9062C195.875 75.9062 190.094 73.4688 185.281 68.5938C180.469 63.6979 178.062 57.8229 178.062 50.9688C178.062 43.9688 180.51 38.0312 185.406 33.1562C190.302 28.2604 196.26 25.8125 203.281 25.8125C207.052 25.8125 210.573 26.5833 213.844 28.125C216.969 29.6667 220.042 32.1667 223.062 35.625L217.875 40.5938C213.917 35.3229 209.094 32.6875 203.406 32.6875C198.302 32.6875 194.021 34.4479 190.562 37.9688C187.104 41.4271 185.375 45.7604 185.375 50.9688C185.375 56.3438 187.302 60.7708 191.156 64.25C194.76 67.4792 198.667 69.0938 202.875 69.0938C206.458 69.0938 209.677 67.8854 212.531 65.4688C215.385 63.0312 216.979 60.1146 217.312 56.7188H205.281V49.875ZM260.781 61.4375H238.969C239.156 63.9375 239.969 65.9271 241.406 67.4062C242.844 68.8646 244.688 69.5938 246.938 69.5938C248.688 69.5938 250.135 69.1771 251.281 68.3438C252.406 67.5104 253.688 65.9688 255.125 63.7188L261.062 67.0312C260.146 68.5938 259.177 69.9375 258.156 71.0625C257.135 72.1667 256.042 73.0833 254.875 73.8125C253.708 74.5208 252.448 75.0417 251.094 75.375C249.74 75.7083 248.271 75.875 246.688 75.875C242.146 75.875 238.5 74.4167 235.75 71.5C233 68.5625 231.625 64.6667 231.625 59.8125C231.625 55 232.958 51.1042 235.625 48.125C238.312 45.1875 241.875 43.7188 246.312 43.7188C250.792 43.7188 254.333 45.1458 256.938 48C259.521 50.8333 260.812 54.7604 260.812 59.7812L260.781 61.4375ZM253.562 55.6875C252.583 51.9375 250.219 50.0625 246.469 50.0625C245.615 50.0625 244.812 50.1979 244.062 50.4688C243.312 50.7188 242.625 51.0938 242 51.5938C241.396 52.0729 240.875 52.6562 240.438 53.3438C240 54.0312 239.667 54.8125 239.438 55.6875H253.562ZM268.5 44.5625H275.562V47.375C278.021 44.9375 280.792 43.7188 283.875 43.7188C287.417 43.7188 290.177 44.8333 292.156 47.0625C293.865 48.9583 294.719 52.0521 294.719 56.3438V75H287.656V58C287.656 55 287.24 52.9271 286.406 51.7812C285.594 50.6146 284.115 50.0312 281.969 50.0312C279.635 50.0312 277.979 50.8021 277 52.3438C276.042 53.8646 275.562 56.5208 275.562 60.3125V75H268.5V44.5625Z" fill="#41B28F"/>
<defs>
<linearGradient id="paint0_linear_4_142" x1="20.3588" y1="9.1009" x2="82.4373" y2="75.8099" gradientUnits="userSpaceOnUse">
<stop stop-color="#B1FFA4"/>
<stop offset="1" stop-color="#31A78B"/>
</linearGradient>
</defs>
</svg>
