<svg width="64" height="64" viewBox="0 0 64 64" fill="none" xmlns="http://www.w3.org/2000/svg">
<rect width="64" height="64" rx="16" fill="#232323"/>
<path d="M12.3602 13.206L11.8204 14.6055L11.8204 14.6055L12.3602 13.206ZM51.64 13.206L51.1002 11.8065L51.1002 11.8065L51.64 13.206ZM32.0001 20.7814L31.4603 22.1809C31.8077 22.3149 32.1925 22.3149 32.5399 22.1809L32.0001 20.7814ZM12.5003 14.139C12.5003 14.4901 12.148 14.7318 11.8204 14.6055L12.9 11.8065C11.2622 11.1747 9.50034 12.3835 9.50034 14.139H12.5003ZM12.5003 35.05V14.139H9.50034V35.05H12.5003ZM32.0001 54.5497C21.2307 54.5497 12.5003 45.8194 12.5003 35.05H9.50034C9.50034 47.4762 19.5738 57.5497 32.0001 57.5497V54.5497ZM51.4999 35.05C51.4999 45.8194 42.7695 54.5497 32.0001 54.5497V57.5497C44.4264 57.5497 54.4999 47.4762 54.4999 35.05H51.4999ZM51.4999 14.139V35.05H54.4999V14.139H51.4999ZM52.1798 14.6055C51.8523 14.7318 51.4999 14.4901 51.4999 14.139H54.4999C54.4999 12.3835 52.7381 11.1747 51.1002 11.8065L52.1798 14.6055ZM32.5399 22.1809L52.1798 14.6055L51.1002 11.8065L31.4603 19.3819L32.5399 22.1809ZM11.8204 14.6055L31.4603 22.1809L32.5399 19.3819L12.9 11.8065L11.8204 14.6055Z" fill="#BEBEBE"/>
<path fill-rule="evenodd" clip-rule="evenodd" d="M35.2286 26.8831C35.0212 27.521 34.9091 28.2019 34.9091 28.909C34.9091 32.524 37.8396 35.4545 41.4545 35.4545C45.0695 35.4545 48 32.524 48 28.909C48 26.4778 46.6744 24.3561 44.7066 23.2273L35.2286 26.8831ZM19.2935 23.2273L28.7713 26.883C28.9788 27.521 29.0909 28.2019 29.0909 28.909C29.0909 32.524 26.1604 35.4545 22.5455 35.4545C18.9305 35.4545 16 32.524 16 28.909C16 26.4777 17.3256 24.3561 19.2935 23.2273ZM22.8285 30.1716L26.4614 28.9606C25.9547 27.4397 24.5196 26.3432 22.8284 26.3432C20.714 26.3432 19 28.0572 19 30.1716C19 32.286 20.714 34 22.8284 34C24.5196 34 25.9547 32.9034 26.4614 31.3825L22.8285 30.1716ZM45 28.892L41.5917 30.0281L45 31.1642C44.5246 32.591 43.1783 33.6198 41.5917 33.6198C39.6081 33.6198 38 32.0117 38 30.0281C38 28.0444 39.6081 26.4364 41.5917 26.4364C43.1783 26.4364 44.5246 27.4651 45 28.892Z" fill="#BEBEBE"/>
<path fill-rule="evenodd" clip-rule="evenodd" d="M32.1022 30.3036L32.0001 30.2182L31.8979 30.3036C31.332 34.132 28.4713 37.2127 24.7587 38.1032L32.0001 49.5L39.2413 38.1032C35.5288 37.2127 32.6681 34.1319 32.1022 30.3036Z" fill="#BEBEBE"/>
</svg>
