<svg width="434" height="100" viewBox="0 0 434 100" fill="none" xmlns="http://www.w3.org/2000/svg">
<g clip-path="url(#clip0_4_143)">
<g clip-path="url(#clip1_4_143)">
<rect x="20" y="18" width="64" height="64" rx="15.36" fill="#FF3F79"/>
<path fill-rule="evenodd" clip-rule="evenodd" d="M40.1183 44.1248C38.6187 42.6252 36.1874 42.6252 34.6877 44.1248C33.1881 45.6244 33.1881 48.0558 34.6877 49.5554L80.5232 95.3908C82.0228 96.8904 84.4542 96.8904 85.9538 95.3908C87.4534 93.8912 87.4534 91.4599 85.9538 89.9603L40.1183 44.1248ZM26.9129 41.7859C28.4125 43.2855 30.8439 43.2855 32.3435 41.7859C33.8431 40.2863 33.8431 37.8549 32.3435 36.3553C30.8439 34.8557 28.4125 34.8557 26.9129 36.3553C25.4133 37.8549 25.4133 40.2863 26.9129 41.7859Z" fill="white"/>
<path fill-rule="evenodd" clip-rule="evenodd" d="M43.6384 69.4048C42.1387 67.9052 39.7074 67.9052 38.2078 69.4048C36.7082 70.9044 36.7082 73.3357 38.2078 74.8354L64.2293 100.857C65.7289 102.357 68.1603 102.357 69.6599 100.857C71.1595 99.3573 71.1595 96.9259 69.6599 95.4263L43.6384 69.4048ZM30.4329 67.0659C31.9325 68.5655 34.3639 68.5655 35.8635 67.0659C37.3631 65.5662 37.3631 63.1349 35.8635 61.6353C34.3639 60.1357 31.9325 60.1357 30.4329 61.6353C28.9333 63.1349 28.9333 65.5662 30.4329 67.0659Z" fill="white"/>
<path fill-rule="evenodd" clip-rule="evenodd" d="M65.7184 47.9648C64.2188 46.4652 61.7875 46.4652 60.2879 47.9648C58.7882 49.4644 58.7882 51.8957 60.2879 53.3954L94.5258 87.6333C96.0254 89.1329 98.4567 89.1329 99.9564 87.6333C101.456 86.1337 101.456 83.7023 99.9564 82.2027L65.7184 47.9648ZM52.513 45.6259C54.0126 47.1255 56.4439 47.1255 57.9436 45.6259C59.4432 44.1262 59.4432 41.6949 57.9436 40.1953C56.4439 38.6957 54.0126 38.6957 52.513 40.1953C51.0134 41.6949 51.0134 44.1262 52.513 45.6259Z" fill="white"/>
<path fill-rule="evenodd" clip-rule="evenodd" d="M71.1584 31.6448C69.6588 30.1452 67.2274 30.1452 65.7278 31.6448C64.2282 33.1444 64.2282 35.5758 65.7278 37.0754L91.7493 63.0969C93.2489 64.5965 95.6803 64.5965 97.1799 63.0969C98.6795 61.5973 98.6795 59.1659 97.1799 57.6663L71.1584 31.6448ZM57.9529 29.3059C59.4525 30.8055 61.8839 30.8055 63.3835 29.3059C64.8831 27.8063 64.8831 25.3749 63.3835 23.8753C61.8839 22.3757 59.4525 22.3757 57.9529 23.8753C56.4533 25.3749 56.4533 27.8063 57.9529 29.3059Z" fill="white"/>
</g>
<path d="M122.6 68.12C121.267 68.5467 119.453 68.9467 117.16 69.32C114.867 69.6933 113.08 69.88 111.8 69.88C106.84 69.88 103.347 68.3333 101.32 65.24C99.3467 62.1467 98.8133 57.3733 99.72 50.92C100.627 44.4133 102.52 39.64 105.4 36.6C108.28 33.56 112.2 32.04 117.16 32.04C118.653 32.04 120.227 32.2 121.88 32.52C123.533 32.84 124.627 33.1067 125.16 33.32C125.693 33.5333 126.067 33.6667 126.28 33.72L124.44 39.48C123.48 39 122.253 38.6533 120.76 38.44C119.267 38.2267 118.227 38.12 117.64 38.12C114.44 38.12 112.12 39.1867 110.68 41.32C109.24 43.4 108.253 46.6 107.72 50.92C107.08 55.3467 107.187 58.5467 108.04 60.52C109 62.6533 110.973 63.72 113.96 63.72H115.56L116.92 54.04H113.08L113.96 47.96H125.4L122.6 68.12ZM135.624 69H128.184L132.184 40.68H138.744L138.504 44.44H138.584C139.384 43.16 140.398 42.0933 141.624 41.24C142.851 40.3867 143.918 39.96 144.824 39.96C145.731 39.96 146.318 40.04 146.584 40.2C146.904 40.3067 147.198 40.4133 147.464 40.52L145.944 47C145.624 46.9467 145.198 46.84 144.664 46.68C144.184 46.52 143.624 46.44 142.984 46.44C142.344 46.44 141.678 46.6533 140.984 47.08C140.291 47.5067 139.411 48.2 138.344 49.16L135.624 69ZM167.95 46.04C166.99 45.9333 165.736 45.88 164.19 45.88C162.643 45.88 161.336 46.52 160.27 47.8C159.256 49.08 158.51 51.4 158.03 54.76C157.603 58.0667 157.63 60.3333 158.11 61.56C158.643 62.7867 159.656 63.4 161.15 63.4C162.056 63.4 162.936 63.1333 163.79 62.6C164.696 62.0133 165.416 61.4 165.95 60.76L167.95 46.04ZM165.95 65.64C162.91 68.36 159.95 69.72 157.07 69.72C152.91 69.72 150.536 67.1333 149.95 61.96C149.736 60.1467 149.816 57.9067 150.19 55.24C150.563 52.52 151.203 50.2 152.11 48.28C153.016 46.36 154.083 44.7867 155.31 43.56C157.603 41.32 160.456 40.2 163.87 40.2C167.923 40.2 172.003 40.6 176.11 41.4L172.19 69H165.95V65.64ZM190.282 49.48L188.282 63.64C189.135 64.0667 190.175 64.28 191.402 64.28C193.269 64.28 194.762 63.5867 195.882 62.2C197.002 60.8133 197.775 58.4667 198.202 55.16C198.682 51.8533 198.629 49.56 198.042 48.28C197.509 47 196.469 46.36 194.922 46.36C193.375 46.36 191.829 47.4 190.282 49.48ZM184.042 40.68H191.002L190.762 44.36H190.842C191.482 43.6133 192.335 42.8667 193.402 42.12C195.375 40.7333 197.109 40.04 198.602 40.04C200.149 40.04 201.429 40.3333 202.442 40.92C203.455 41.5067 204.282 42.3867 204.922 43.56C206.255 46.1733 206.629 49.8 206.042 54.44C205.349 59.4533 203.749 63.2933 201.242 65.96C199.002 68.4667 196.255 69.72 193.002 69.72C190.975 69.72 189.162 69.3467 187.562 68.6L185.642 81.56H178.282L184.042 40.68ZM214.036 29.32L221.636 28.28L219.396 44.28H219.476C219.69 44.12 220.036 43.8 220.516 43.32C220.996 42.84 221.583 42.36 222.276 41.88C224.036 40.6533 225.903 40.04 227.876 40.04C230.543 40.04 232.303 40.84 233.156 42.44C234.01 44.04 234.196 46.52 233.716 49.88L231.156 69H223.716L226.036 51.72C226.303 49.6933 226.303 48.3333 226.036 47.64C225.77 46.8933 225.05 46.52 223.876 46.52C222.863 46.52 221.956 46.8133 221.156 47.4C219.876 48.4133 219.05 49.16 218.676 49.64L215.956 69H208.516L214.036 29.32ZM249.73 63.64C251.916 63.64 253.623 62.5467 254.85 60.36C256.076 58.12 256.956 54.9733 257.49 50.92C258.076 46.8133 258.05 43.6667 257.41 41.48C256.77 39.24 255.383 38.12 253.25 38.12C251.17 38.12 249.516 39.24 248.29 41.48C247.063 43.6667 246.156 46.8133 245.57 50.92C244.983 54.9733 244.983 58.12 245.57 60.36C246.156 62.5467 247.543 63.64 249.73 63.64ZM256.37 67.88C257.863 69.3733 259.703 70.5733 261.89 71.48L257.81 76.6C256.05 76.2267 253.97 75.0267 251.57 73C250.61 72.1467 249.703 71.0533 248.85 69.72C239.623 69.72 235.89 63.4533 237.65 50.92C238.556 44.4133 240.423 39.64 243.25 36.6C246.076 33.56 249.703 32.04 254.13 32.04C258.61 32.04 261.836 33.56 263.81 36.6C265.783 39.64 266.316 44.4133 265.41 50.92C264.183 59.5067 261.17 65.16 256.37 67.88ZM269.161 69L274.281 32.68H281.961L277.641 62.76H288.441L287.081 69H269.161ZM320.04 45.88L311.4 65.96H306.12C306.014 65.1067 305.667 62.9467 305.08 59.48C304.494 55.96 304.094 53.5333 303.88 52.2C303.454 48.8933 303.16 46.7867 303 45.88L298.28 69H290.84L299.32 32.68H306.84C306.894 33.2133 307.027 34.0667 307.24 35.24C307.454 36.36 307.667 37.64 307.88 39.08C308.147 40.4667 308.414 41.9867 308.68 43.64C308.947 45.2933 309.187 46.8933 309.4 48.44C309.614 49.9333 309.8 51.32 309.96 52.6C310.12 53.88 310.254 54.8933 310.36 55.64C310.574 54.9467 310.947 53.96 311.48 52.68C312.067 51.4 312.68 49.9867 313.32 48.44C313.96 46.8933 314.654 45.32 315.4 43.72C316.147 42.0667 316.84 40.52 317.48 39.08C318.174 37.64 318.76 36.36 319.24 35.24C319.774 34.0667 320.174 33.2133 320.44 32.68H327.96L326.2 69H318.44C318.494 68.4133 318.547 67.5333 318.6 66.36C318.654 65.1867 318.734 63.88 318.84 62.44C319 60.9467 319.107 59.4 319.16 57.8C319.267 56.2 319.374 54.6533 319.48 53.16C319.587 51.6667 319.694 50.28 319.8 49C319.907 47.6667 319.987 46.6267 320.04 45.88ZM341.4 64.28C343 64.28 344.253 63.5333 345.16 62.04C346.12 60.5467 346.813 58.1467 347.24 54.84C347.72 51.48 347.693 49.08 347.16 47.64C346.626 46.2 345.586 45.48 344.04 45.48C342.493 45.48 341.266 46.2 340.36 47.64C339.453 49.08 338.76 51.48 338.28 54.84C337.853 58.2 337.88 60.6267 338.36 62.12C338.84 63.56 339.853 64.28 341.4 64.28ZM355.08 48.04C355.4 49.9067 355.346 52.1733 354.92 54.84C354.546 57.5067 353.933 59.7733 353.08 61.64C352.28 63.5067 351.266 65.0533 350.04 66.28C347.746 68.5733 344.626 69.72 340.68 69.72C334.813 69.72 331.426 67.0267 330.52 61.64C330.2 59.7733 330.253 57.48 330.68 54.76C331.266 49.7467 332.893 45.9867 335.56 43.48C337.96 41.1867 341.026 40.04 344.76 40.04C350.733 40.04 354.173 42.7067 355.08 48.04ZM377.147 46.68C375.387 46.0933 373.894 45.8 372.667 45.8C370.801 45.8 369.334 46.5467 368.267 48.04C367.201 49.48 366.427 51.8267 365.947 55.08C365.521 58.28 365.654 60.5467 366.347 61.88C367.094 63.16 368.134 63.8 369.467 63.8C370.854 63.8 372.054 63.6133 373.067 63.24C374.081 62.8133 374.774 62.5467 375.147 62.44L376.187 67.08C373.254 68.84 370.454 69.72 367.787 69.72C360.107 69.72 356.934 64.8933 358.267 55.24C359.601 45.1067 364.321 40.04 372.427 40.04C374.721 40.04 376.854 40.4133 378.827 41.16L377.147 46.68ZM386.44 29.32L393.96 28.28L390.52 52.92L399.4 40.68H407.8L396.84 53.32L404.68 69H395.88L390.12 55.48L388.28 69H380.84L386.44 29.32Z" fill="#454545"/>
</g>
<defs>
<clipPath id="clip0_4_143">
<rect width="434" height="100" fill="white"/>
</clipPath>
<clipPath id="clip1_4_143">
<rect x="20" y="18" width="64" height="64" rx="15.36" fill="white"/>
</clipPath>
</defs>
</svg>
