<svg width="64" height="64" viewBox="0 0 64 64" fill="none" xmlns="http://www.w3.org/2000/svg">
<rect width="64" height="64" rx="16" fill="#232323"/>
<path d="M12.3601 13.206L11.4703 15.513L12.3601 13.206ZM51.6399 13.206L50.7501 10.8989L50.7501 10.8989L51.6399 13.206ZM32 20.7814L31.1102 23.0884C31.6828 23.3093 32.3172 23.3093 32.8899 23.0884L32 20.7814ZM13.473 14.139C13.473 15.1731 12.4351 15.8852 11.4703 15.513L13.25 10.8989C10.9749 10.0214 8.52752 11.7005 8.52752 14.139H13.473ZM13.473 35.05V14.139H8.52752V35.05H13.473ZM32 53.577C21.7678 53.577 13.473 45.2822 13.473 35.05H8.52752C8.52752 48.0135 19.0365 58.5225 32 58.5225V53.577ZM50.5271 35.05C50.5271 45.2822 42.2322 53.577 32 53.577V58.5225C44.9635 58.5225 55.4725 48.0135 55.4725 35.05H50.5271ZM50.5271 14.139V35.05H55.4725V14.139H50.5271ZM52.5298 15.513C51.565 15.8852 50.5271 15.1731 50.5271 14.139H55.4725C55.4725 11.7005 53.0252 10.0214 50.7501 10.8989L52.5298 15.513ZM32.8899 23.0884L52.5298 15.513L50.7501 10.8989L31.1102 18.4743L32.8899 23.0884ZM11.4703 15.513L31.1102 23.0884L32.8899 18.4743L13.25 10.8989L11.4703 15.513Z" fill="#BEBEBE"/>
<path fill-rule="evenodd" clip-rule="evenodd" d="M35.2286 26.8831C35.0212 27.5211 34.9091 28.202 34.9091 28.9091C34.9091 32.524 37.8396 35.4545 41.4545 35.4545C45.0695 35.4545 48 32.524 48 28.9091C48 26.4778 46.6744 24.3561 44.7066 23.2274L35.2286 26.8831ZM19.2935 23.2273L28.7713 26.883C28.9788 27.521 29.0909 28.2019 29.0909 28.9091C29.0909 32.524 26.1604 35.4545 22.5455 35.4545C18.9305 35.4545 16 32.524 16 28.9091C16 26.4778 17.3256 24.3561 19.2935 23.2273ZM22.5455 28.9091L25.1679 28.0349C24.8021 26.937 23.7662 26.1454 22.5454 26.1454C21.0191 26.1454 19.7817 27.3827 19.7817 28.9091C19.7817 30.4354 21.0191 31.6727 22.5454 31.6727C23.7662 31.6727 24.8021 30.8811 25.1679 29.7832L22.5455 28.9091ZM44.0771 28.0349L41.4545 28.9091L44.0771 29.7832C43.7113 30.8811 42.6754 31.6727 41.4546 31.6727C39.9282 31.6727 38.6909 30.4354 38.6909 28.9091C38.6909 27.3827 39.9282 26.1454 41.4546 26.1454C42.6754 26.1454 43.7113 26.937 44.0771 28.0349Z" fill="#BEBEBE"/>
<path fill-rule="evenodd" clip-rule="evenodd" d="M32.1003 30.2902L32.0001 30.2182L31.9 30.2902C31.2872 34.4771 27.9301 37.7727 23.7136 38.2922L32.0001 49.5L40.2866 38.2922C36.0701 37.7727 32.7131 34.4771 32.1003 30.2902Z" fill="#BEBEBE"/>
</svg>
